<svg xmlns="http://www.w3.org/2000/svg" version="1.1" xmlns:xlink="http://www.w3.org/1999/xlink" xmlns:svgjs="http://svgjs.dev/svgjs" width="2000" height="1999" viewBox="0 0 2000 1999"><g transform="matrix(1,0,0,1,-0.4314868804665366,-0.4312711370263287)"><svg viewBox="0 0 343 343" data-background-color="#ffffff" preserveAspectRatio="xMidYMid meet" height="1999" width="2000" xmlns="http://www.w3.org/2000/svg" xmlns:xlink="http://www.w3.org/1999/xlink"><g id="tight-bounds" transform="matrix(1,0,0,1,0.07400000000001228,0.07400000000001228)"><svg viewBox="0 0 342.8515585177538 342.8515585177538" height="342.8515585177538" width="342.8515585177538"><g><svg></svg></g><g><svg viewBox="0 0 342.8515585177538 342.8515585177538" height="342.8515585177538" width="342.8515585177538"><g><path d="M0 171.426c0-94.676 76.75-171.426 171.426-171.426 94.676 0 171.426 76.75 171.426 171.426 0 94.676-76.75 171.426-171.426 171.426-94.676 0-171.426-76.75-171.426-171.426zM171.426 338.676c92.369 0 167.25-74.88 167.25-167.25 0-92.369-74.88-167.25-167.25-167.25-92.369 0-167.25 74.88-167.25 167.25 0 92.369 74.88 167.25 167.25 167.25z" data-fill-palette-color="tertiary" fill="#ffffff" stroke="transparent"></path><ellipse rx="164.56874808852183" ry="164.56874808852183" cx="171.4257792588769" cy="171.4257792588769" fill="#ffffff" stroke="transparent" stroke-width="0" fill-opacity="1" data-fill-palette-color="tertiary"></ellipse></g><g transform="matrix(1,0,0,1,64.84655864529836,78.80966038902577)"><svg viewBox="0 0 213.15844122715708 185.23223773970227" height="185.23223773970227" width="213.15844122715708"><g><svg viewBox="0 0 213.15844122715708 185.23223773970227" height="185.23223773970227" width="213.15844122715708"><g><svg viewBox="0 0 213.15844122715708 185.23223773970227" height="185.23223773970227" width="213.15844122715708"><g><svg viewBox="0 0 213.15844122715708 46.30717959851319" height="46.30717959851319" width="213.15844122715708"><g id="textblocktransform"><svg viewBox="0 0 213.15844122715708 46.30717959851319" height="46.30717959851319" width="213.15844122715708" id="textblock"><g><svg viewBox="0 0 213.15844122715708 46.30717959851319" height="46.30717959851319" width="213.15844122715708"><g transform="matrix(1,0,0,1,0,0)"><svg width="213.15844122715708" viewBox="0.6000000238418579 -37.150001525878906 212.52999877929688 46.18000030517578" height="46.30717959851319" data-palette-color="#ffffff"><path d="M0.6-36.15L29.13-36.15 29.13-30.63 18.25-30.63 18.25 0 11.53 0 11.53-30.63 0.6-30.63 0.6-36.15ZM38.55-26.05L38.55-26.05Q40.97-26.05 43.01-25.28 45.05-24.5 46.52-23.01 48-21.53 48.82-19.36 49.65-17.2 49.65-14.43L49.65-14.43Q49.65-13.73 49.58-13.26 49.52-12.8 49.36-12.54 49.2-12.28 48.92-12.16 48.65-12.05 48.22-12.05L48.22-12.05 32.37-12.05Q32.65-8.1 34.5-6.25 36.35-4.4 39.4-4.4L39.4-4.4Q40.9-4.4 41.98-4.75 43.07-5.1 43.88-5.53 44.7-5.95 45.31-6.3 45.92-6.65 46.5-6.65L46.5-6.65Q46.87-6.65 47.15-6.5 47.42-6.35 47.62-6.08L47.62-6.08 49.42-3.83Q48.4-2.63 47.12-1.81 45.85-1 44.46-0.51 43.07-0.03 41.63 0.18 40.2 0.38 38.85 0.38L38.85 0.38Q36.17 0.38 33.87-0.51 31.57-1.4 29.87-3.14 28.17-4.88 27.2-7.44 26.22-10 26.22-13.38L26.22-13.38Q26.22-16 27.07-18.31 27.92-20.63 29.51-22.34 31.1-24.05 33.38-25.05 35.67-26.05 38.55-26.05ZM38.67-21.63L38.67-21.63Q35.97-21.63 34.45-20.1 32.92-18.57 32.5-15.78L32.5-15.78 44.1-15.78Q44.1-16.98 43.77-18.04 43.45-19.1 42.77-19.9 42.1-20.7 41.07-21.16 40.05-21.63 38.67-21.63ZM74.32-22.48L72.7-20.23Q72.42-19.88 72.16-19.68 71.9-19.48 71.4-19.48L71.4-19.48Q70.92-19.48 70.47-19.76 70.02-20.05 69.4-20.41 68.77-20.78 67.91-21.06 67.05-21.35 65.77-21.35L65.77-21.35Q64.15-21.35 62.92-20.76 61.7-20.18 60.88-19.07 60.07-17.98 59.67-16.41 59.27-14.85 59.27-12.88L59.27-12.88Q59.27-10.83 59.71-9.22 60.15-7.63 60.97-6.54 61.8-5.45 62.97-4.89 64.15-4.33 65.62-4.33L65.62-4.33Q67.09-4.33 68.01-4.69 68.92-5.05 69.55-5.49 70.17-5.93 70.63-6.29 71.09-6.65 71.67-6.65L71.67-6.65Q72.42-6.65 72.8-6.08L72.8-6.08 74.57-3.83Q73.55-2.63 72.34-1.81 71.15-1 69.86-0.51 68.57-0.03 67.2 0.18 65.82 0.38 64.47 0.38L64.47 0.38Q62.1 0.38 60-0.51 57.9-1.4 56.33-3.1 54.77-4.8 53.86-7.26 52.95-9.73 52.95-12.88L52.95-12.88Q52.95-15.7 53.76-18.11 54.57-20.53 56.15-22.29 57.72-24.05 60.05-25.05 62.37-26.05 65.4-26.05L65.4-26.05Q68.27-26.05 70.43-25.13 72.59-24.2 74.32-22.48L74.32-22.48ZM84.69 0L78.52 0 78.52-37.15 84.69-37.15 84.69-22.88Q86.19-24.3 87.99-25.18 89.79-26.05 92.22-26.05L92.22-26.05Q94.32-26.05 95.94-25.34 97.57-24.63 98.66-23.34 99.74-22.05 100.31-20.26 100.87-18.48 100.87-16.32L100.87-16.32 100.87 0 94.69 0 94.69-16.32Q94.69-18.68 93.61-19.96 92.52-21.25 90.34-21.25L90.34-21.25Q88.74-21.25 87.34-20.53 85.94-19.8 84.69-18.55L84.69-18.55 84.69 0ZM130.59 0L116.94 0 116.94-36.15 129.41-36.15Q132.96-36.15 135.48-35.48 137.99-34.8 139.6-33.55 141.21-32.3 141.96-30.53 142.71-28.75 142.71-26.53L142.71-26.53Q142.71-25.25 142.34-24.09 141.96-22.93 141.18-21.91 140.39-20.9 139.18-20.08 137.96-19.25 136.29-18.68L136.29-18.68Q143.74-17 143.74-10.63L143.74-10.63Q143.74-8.33 142.86-6.38 141.99-4.42 140.31-3.01 138.64-1.6 136.19-0.8 133.74 0 130.59 0L130.59 0ZM130.46-15.85L123.66-15.85 123.66-5.25 130.49-5.25Q132.36-5.25 133.63-5.7 134.89-6.15 135.65-6.9 136.41-7.65 136.75-8.65 137.09-9.65 137.09-10.78L137.09-10.78Q137.09-11.95 136.71-12.89 136.34-13.83 135.54-14.49 134.74-15.15 133.49-15.5 132.24-15.85 130.46-15.85L130.46-15.85ZM123.66-30.95L123.66-20.5 129.04-20.5Q132.46-20.5 134.24-21.75 136.01-23 136.01-25.73L136.01-25.73Q136.01-28.55 134.41-29.75 132.81-30.95 129.41-30.95L129.41-30.95 123.66-30.95ZM149.56-37.15L155.74-37.15 155.74 0 149.56 0 149.56-37.15ZM173.66-26.05L173.66-26.05Q176.53-26.05 178.87-25.13 181.21-24.2 182.86-22.5 184.51-20.8 185.41-18.35 186.31-15.9 186.31-12.88L186.31-12.88Q186.31-9.83 185.41-7.38 184.51-4.93 182.86-3.2 181.21-1.48 178.87-0.55 176.53 0.38 173.66 0.38L173.66 0.38Q170.78 0.38 168.43-0.55 166.08-1.48 164.42-3.2 162.76-4.93 161.85-7.38 160.93-9.83 160.93-12.88L160.93-12.88Q160.93-15.9 161.85-18.35 162.76-20.8 164.42-22.5 166.08-24.2 168.43-25.13 170.78-26.05 173.66-26.05ZM173.66-4.38L173.66-4.38Q176.86-4.38 178.4-6.53 179.93-8.68 179.93-12.83L179.93-12.83Q179.93-16.98 178.4-19.15 176.86-21.33 173.66-21.33L173.66-21.33Q170.41-21.33 168.86-19.14 167.31-16.95 167.31-12.83L167.31-12.83Q167.31-8.7 168.86-6.54 170.41-4.38 173.66-4.38ZM200.01-26.1L200.01-26.1Q201.66-26.1 203.11-25.76 204.56-25.43 205.76-24.78L205.76-24.78 213.13-24.78 213.13-22.48Q213.13-21.9 212.83-21.58 212.53-21.25 211.81-21.13L211.81-21.13 209.51-20.7Q209.76-20.05 209.89-19.33 210.03-18.6 210.03-17.8L210.03-17.8Q210.03-15.9 209.27-14.36 208.51-12.83 207.17-11.75 205.83-10.68 203.99-10.09 202.16-9.5 200.01-9.5L200.01-9.5Q198.56-9.5 197.18-9.78L197.18-9.78Q195.98-9.05 195.98-8.15L195.98-8.15Q195.98-7.38 196.69-7.01 197.41-6.65 198.57-6.5 199.73-6.35 201.21-6.31 202.68-6.28 204.23-6.15 205.78-6.03 207.26-5.71 208.73-5.4 209.89-4.73 211.06-4.05 211.77-2.89 212.48-1.73 212.48 0.1L212.48 0.1Q212.48 1.8 211.64 3.4 210.81 5 209.22 6.25 207.63 7.5 205.33 8.26 203.03 9.03 200.08 9.03L200.08 9.03Q197.16 9.03 195.01 8.46 192.86 7.9 191.44 6.96 190.03 6.03 189.33 4.8 188.63 3.58 188.63 2.25L188.63 2.25Q188.63 0.45 189.73-0.78 190.83-2 192.78-2.73L192.78-2.73Q191.83-3.25 191.26-4.13 190.68-5 190.68-6.4L190.68-6.4Q190.68-6.98 190.88-7.59 191.08-8.2 191.49-8.8 191.91-9.4 192.53-9.94 193.16-10.48 194.01-10.9L194.01-10.9Q192.06-11.95 190.94-13.7 189.83-15.45 189.83-17.8L189.83-17.8Q189.83-19.7 190.59-21.24 191.36-22.78 192.72-23.86 194.08-24.95 195.94-25.53 197.81-26.1 200.01-26.1ZM206.78 1.15L206.78 1.15Q206.78 0.4 206.33-0.08 205.88-0.55 205.11-0.81 204.33-1.07 203.29-1.2 202.26-1.33 201.09-1.39 199.93-1.45 198.69-1.51 197.46-1.58 196.31-1.73L196.31-1.73Q195.26-1.15 194.62-0.36 193.98 0.43 193.98 1.45L193.98 1.45Q193.98 2.13 194.32 2.71 194.66 3.3 195.39 3.73 196.13 4.15 197.31 4.39 198.48 4.63 200.18 4.63L200.18 4.63Q201.91 4.63 203.16 4.36 204.41 4.1 205.22 3.64 206.03 3.18 206.41 2.54 206.78 1.9 206.78 1.15ZM200.01-13.45L200.01-13.45Q201.16-13.45 202.01-13.76 202.86-14.08 203.42-14.63 203.98-15.18 204.27-15.95 204.56-16.73 204.56-17.65L204.56-17.65Q204.56-19.55 203.42-20.66 202.28-21.78 200.01-21.78L200.01-21.78Q197.73-21.78 196.59-20.66 195.46-19.55 195.46-17.65L195.46-17.65Q195.46-16.75 195.74-15.98 196.03-15.2 196.59-14.64 197.16-14.08 198.02-13.76 198.88-13.45 200.01-13.45Z" opacity="1" transform="matrix(1,0,0,1,0,0)" fill="#000000" class="wordmark-text-0" data-fill-palette-color="quaternary" id="text-0"></path></svg></g></svg></g></svg></g></svg></g><g transform="matrix(1,0,0,1,37.17667537319926,57.23919332941179)"><svg viewBox="0 0 138.80509048075857 127.99304441029048" height="127.99304441029048" width="138.80509048075857"><g><svg xmlns="http://www.w3.org/2000/svg" xmlns:xlink="http://www.w3.org/1999/xlink" version="1.1" x="0" y="0" viewBox="50 66 412.1000061035156 380" style="enable-background:new 0 0 512 512;" xml:space="preserve" height="127.99304441029048" width="138.80509048075857" class="icon-icon-0" data-fill-palette-color="quaternary" id="icon-0"><g fill="#ffffff" data-fill-palette-color="quaternary"><path d="M50 326.9c0 12.8 10.7 23.1 23.6 23.1h364.9c12.8 0 23.6-10.3 23.6-23.1V306H50V326.9z" fill="#000000" data-fill-palette-color="quaternary"></path><path d="M263.2 179.2C263.2 179.2 263.2 179.2 263.2 179.2c0-4.5-3.7-8.2-8.2-8.2-4.5 0-8.2 3.7-8.2 8.2s3.7 8.2 8.2 8.2C259.6 187.4 263.2 183.7 263.2 179.2z" fill="#000000" data-fill-palette-color="quaternary"></path><path d="M255.1 116.1c-4.5 0-8.2 3.7-8.2 8.2 0 4.5 3.7 8.2 8.2 8.2 4.5 0 8.2-3.7 8.2-8.2 0 0 0 0 0 0C263.2 119.8 259.6 116.1 255.1 116.1z" fill="#000000" data-fill-palette-color="quaternary"></path><path d="M255.1 227.7c-4.5 0-8.2 3.7-8.2 8.2 0 4.5 3.7 8.2 8.2 8.2 4.5 0 8.2-3.7 8.2-8.2C263.2 231.4 259.6 227.7 255.1 227.7z" fill="#000000" data-fill-palette-color="quaternary"></path><path d="M200.2 171c-4.5 0-8.2 3.7-8.2 8.2s3.7 8.2 8.2 8.2c4.5 0 8.2-3.7 8.2-8.2 0 0 0 0 0 0C208.4 174.6 204.7 171 200.2 171z" fill="#000000" data-fill-palette-color="quaternary"></path><path d="M200.2 132.5c4.5 0 8.2-3.7 8.2-8.2 0-4.5-3.7-8.2-8.2-8.2-4.5 0-8.2 3.7-8.2 8.2 0 0 0 0 0 0C192 128.8 195.7 132.5 200.2 132.5z" fill="#000000" data-fill-palette-color="quaternary"></path><path d="M200.2 227.7c-4.5 0-8.2 3.7-8.2 8.2 0 4.5 3.7 8.2 8.2 8.2 4.5 0 8.2-3.7 8.2-8.2 0 0 0 0 0 0C208.4 231.4 204.7 227.7 200.2 227.7z" fill="#000000" data-fill-palette-color="quaternary"></path><path d="M438.4 66H73.6C60.7 66 50.2 76.4 50 89.2V294h412V89.2C461.8 76.4 451.3 66 438.4 66zM291.6 124.3c0-11.1 9-20.2 20.2-20.2 11.2 0 20.2 9 20.2 20.2s-9 20.2-20.2 20.2S291.6 135.5 291.6 124.3C291.6 124.3 291.6 124.3 291.6 124.3zM200.2 256.1c-11.2 0-20.2-9-20.2-20.2 0-11.2 9-20.2 20.2-20.2 11.2 0 20.2 9 20.2 20.2C220.4 247.1 211.3 256.1 200.2 256.1zM275.2 235.9c0 11.2-9 20.2-20.1 20.3-11.2 0-20.2-9-20.3-20.1 0-1.8 0.2-3.6 0.7-5.3L203.8 199c-11 2-21.5-5.2-23.6-16.2-0.2-1.2-0.3-2.4-0.3-3.7 0-8.7 6.1-16.1 13.1-18.9v-17c-7-2.8-13.1-10.2-13.1-18.9 0-11.1 9-20.2 20.2-20.2s20.2 9 20.2 20.2c0 0 0 0 0 0 0.1 9.3-6.2 17.3-15.2 19.5v15.8c10.8 2.7 17.4 13.7 14.7 24.5-0.8 3.4-2.5 6.4-4.9 8.9l27.4 27.3c2.3-1.9 5-3.3 7.9-4v-17.7c-10.8-2.8-17.3-13.8-14.5-24.6 2.8-10.8 13.8-17.3 24.6-14.5 10.8 2.8 17.3 13.8 14.5 24.6-1.7 6.4-6.4 11.6-12.6 13.9V217C269.9 219.9 275.2 227.5 275.2 235.9L275.2 235.9zM319 198.1V217c7 2.8 13.1 10.2 13.1 18.9 0 11.1-9 20.2-20.2 20.2-11.1 0-20.2-9-20.2-20.2 0 0 0 0 0 0-0.1-9.3 6.2-17.3 15.2-19.5v-17.7c-10.8-2.7-17.4-13.7-14.6-24.5 0.3-1.3 0.8-2.6 1.4-3.9l-28.5-28.6c-9.7 5.7-22.1 2.5-27.8-7.1-5.7-9.7-2.5-22.1 7.1-27.8 9.7-5.7 22.1-2.5 27.8 7.1 3.4 5.8 3.8 12.9 0.9 18.9l28.6 28.8c3-1.7 6.4-2.6 9.9-2.6 11.2 0 20.2 9 20.3 20.2C332.1 187.8 326 195.3 319 198.1z" fill="#000000" data-fill-palette-color="quaternary"></path><path d="M311.8 132.5c4.5 0 8.2-3.7 8.2-8.2 0-4.5-3.7-8.2-8.2-8.2-4.5 0-8.2 3.7-8.2 8.2 0 0 0 0 0 0C303.6 128.8 307.3 132.5 311.8 132.5z" fill="#000000" data-fill-palette-color="quaternary"></path><path d="M311.8 171c-4.5 0-8.2 3.7-8.2 8.2s3.7 8.2 8.2 8.2 8.2-3.7 8.2-8.2c0 0 0 0 0 0C320 174.6 316.3 171 311.8 171z" fill="#000000" data-fill-palette-color="quaternary"></path><path d="M311.8 227.7c-4.5 0-8.2 3.7-8.2 8.2 0 4.5 3.7 8.2 8.2 8.2 4.5 0 8.2-3.7 8.2-8.2C320 231.4 316.3 227.7 311.8 227.7z" fill="#000000" data-fill-palette-color="quaternary"></path><path d="M351.2 434H318v-78H194v78h-27.9c-3.3 0-6 2.7-6 6s2.7 6 6 6h185c3.3 0 6-2.7 6-6S354.5 434 351.2 434z" fill="#000000" data-fill-palette-color="quaternary"></path></g></svg></g></svg></g><g></g></svg></g></svg></g></svg></g></svg></g><defs></defs></svg><rect width="342.8515585177538" height="342.8515585177538" fill="none" stroke="none" visibility="hidden"></rect></g></svg></g></svg>